<svg xmlns="http://www.w3.org/2000/svg" viewBox="41.5 21 128 128"><rect x="41.5" y="21" width="128" height="128" rx="24" fill="#0f172a"/>
<defs>
</defs>

<path d="M61.0213,128.024 C61.0213,128.024 60,130 60,130 C60,130 57,130 57,130 C57.0149,128.642 54.1112,129.107 54.9725,127.539 C55.152,127.212 55.5837,127.037 55.9353,126.949 C56.9728,128.569 59.3795,128.081 61.0213,128.024 Z " fill="rgb(71,109,84)"/>
<path d="M103.759,85.5305 C104.037,86.702 103.716,87.3513 104.009,88.3816 C104.107,88.7275 104.477,88.8852 104.9,88.9105 C106.313,93.5026 108.042,98.6782 112.989,101.123 C114.412,101.826 115.217,102.474 115.014,103.91 C112.949,104.586 110.673,105.546 109.126,107.147 C107.629,106.747 107.254,105.753 107.374,104.673 C107.474,103.775 108.282,103.117 107.28,101.574 C106.299,104.429 104.876,104.574 103.534,105.65 C99.0225,109.269 101.203,118.894 98.5057,118.017 C97.9852,117.848 97.7377,116.904 97.9845,116.538 C98.2184,116.191 98.9989,115.612 99.0974,115.398 C99.0069,113.336 99.7563,111.982 99.5059,111.149 C97.0058,109.634 94.7072,109.302 93.4537,110.774 C93.0749,111.219 92.4847,111.19 92.1563,111.361 C89.3025,110.055 86.66,109.462 82.8955,110.285 C83.4779,110.736 84.1949,111.598 84.0846,112.133 C84.0846,112.133 80.8129,117.078 80.8129,117.078 C82.2939,118.967 83.1171,121.088 83.0595,123.077 C82.6847,122.645 81.5266,121.968 80.6694,122.184 C79.306,119.55 77.7871,118.125 74.2606,116.108 C77.0199,114.435 77.7525,111.341 79.0931,110.198 C79.5126,109.84 80.4078,109.691 80.0065,108.492 C79.8855,108.13 79.188,107.762 78.5687,107.966 C78.2147,108.083 77.8381,108.262 77.8448,108.888 C77.0032,108.364 76.1663,107.848 74.9083,108.048 C75.2274,107.997 68.7892,111.304 69.0153,110.478 C68.9061,110.877 69.9894,111.353 70.4678,111.009 C70.8039,110.767 70.6733,111.683 70.9953,112.032 C67.9312,113.901 64.2569,115.771 61.0688,116.959 C60.5491,116.231 59.3008,115.563 57.9638,116.085 C57.9961,114.443 57.9219,113.351 59.1606,111.89 C62.5145,110.223 65.0965,105.231 64.0008,100.997 C67.4673,101.596 71.0819,101.593 72.0481,100.472 C72.695,99.7208 72.3541,98.856 71.8456,98.0543 C81.0099,98.0641 97.143,90.9305 103.759,85.5305 Z " fill="rgb(91,166,93)"/>
<path d="M135.234,73.6215 C135.234,73.6215 145.029,79.6397 145.029,79.6397 C149.112,80.3976 153.501,80.4763 156.056,83.5646 C158.447,86.4556 158.608,90.5495 157.394,94.4524 C157.123,95.3239 159.212,96.3535 159.956,96.8784 C160.122,97.8311 159.474,98.1221 158.938,98.0362 C158.341,97.9408 156.892,97.8417 155.967,97.9965 C155.967,97.9965 146.118,109.757 146.118,109.757 C144.85,111.023 143.957,111.306 142.245,110.521 C141.114,109.499 139.102,108.616 138.417,107.219 C138.541,106.065 138.79,104.564 140.401,105.065 C140.856,105.206 142.042,104.383 140.533,103.866 C138.306,103.22 137.228,103.219 136.419,103.872 C135.198,104.857 135.047,105.598 135.13,107.006 C133.878,105.728 133.102,104.002 131.414,103.116 C129.222,105.284 130.523,102.281 129.95,100.823 C129.552,99.8101 128.046,98.5259 126.721,97.9002 C128.696,95.9878 128.887,92.116 129.837,89.5553 C130.781,89.2451 131.69,89.6599 132.142,89.4498 C132.665,89.2063 136.215,81.6152 131.764,79.4582 C131.764,79.4582 133.257,74.0484 133.257,74.0484 C133.451,73.6998 134.775,73.8946 135.234,73.6215 Z " fill="rgb(92,171,102)"/>
<path d="M100.938,61.031 C103.921,65.2259 99.3969,69.4047 101.96,78.7269 C102.059,79.0839 101.938,80.0469 102.003,80.472 C102.057,80.8207 102.517,81.2458 103.235,81.2705 C94.7756,88.69 83.8146,93.5476 72.0552,95.4049 C72.0552,95.4049 64.1697,95.0816 64.1697,95.0816 C61.4292,94.9692 59.435,94.2225 57.042,93.1286 C57.192,90.4203 53.6858,91.48 53.7846,89.4654 C53.8139,88.8677 54.0967,87.9783 54.7242,87.6148 C55.0145,89.2417 55.3623,89.468 55.6584,89.7488 C55.9965,90.0696 57.2403,89.9689 57.5578,89.8146 C60.8015,90.9602 64.8458,91.4607 68.9455,90.7925 C68.9455,90.7925 69.0157,76.0766 69.0157,76.0766 C69.0157,76.0766 77.0028,76.0537 77.0028,76.0537 C77.0028,76.0537 77.3429,89.2468 77.3429,89.2468 C79.2232,88.7465 80.2697,87.923 80.9706,87.9966 C81.4309,88.045 82.7891,87.4096 82.7982,86.6955 C82.7982,86.6955 83.0096,70.0922 83.0096,70.0922 C83.0096,70.0922 89.0561,70.2066 89.0561,70.2066 C88.9682,73.0845 88.6338,77.828 89.6622,79.9573 C90.0044,80.6657 89.3054,82.8186 91.0227,82.9527 C92.3611,82.6798 94.1781,81.1254 95.0498,80.2332 C95.0498,80.2332 95.0023,61.0621 95.0023,61.0621 C95.0023,61.0621 100.938,61.031 100.938,61.031 Z " fill="rgb(230,71,66)"/>
<path d="M121.961,69.0767 C121.927,71.1868 123.857,71.8656 125.777,72.4234 C131.572,78.944 128.965,79.4836 129.059,80.3648 C129.141,81.1362 130.24,81.5784 130.899,80.5312 C131.168,80.1029 131.568,80.1709 131.764,79.4582 C136.215,81.6152 132.665,89.2063 132.142,89.4498 C131.69,89.6599 130.781,89.2451 129.837,89.5553 C130.472,87.8466 130.345,84.716 129.34,83.0184 C129.049,85.1674 129.072,89.1879 126.982,89.8987 C120.667,89.0984 119.18,85.3337 113.818,89.0105 C112.017,90.2457 109.776,90.2776 109.443,93.271 C107.902,90.6344 107.158,89.0553 104.9,88.9105 C104.477,88.8852 104.107,88.7275 104.009,88.3816 C103.716,87.3513 104.037,86.702 103.759,85.5305 C103.759,85.5305 113.054,77.9448 113.054,77.9448 C114.04,77.14 114.283,75.5827 114.929,74.7585 C114.929,74.7585 117.47,71.5124 117.47,71.5124 C118.843,69.7588 119.944,68.8118 121.961,69.0767 Z " fill="rgb(82,147,75)"/>
<path d="M122.968,57.9262 C121.223,57.4732 118.59,55.4572 116.703,55.5514 C114.004,55.6861 111.337,57.2553 108.163,56.1862 C114.619,50.8868 119.47,46.2861 125.301,40.2334 C125.301,40.2334 131.223,64.1268 131.223,64.1268 C131.223,64.1268 124.627,58.1791 124.627,58.1791 C124.176,57.7716 123.342,58.0232 122.968,57.9262 Z " fill="rgb(242,9,3)"/>
<path d="M129.95,100.823 C128.706,101.241 129.413,103.958 128.662,104.725 C127.625,105.787 127.764,106.668 127.945,107.901 C128.124,109.123 125.964,114.307 124.631,114.784 C123.628,115.143 123.357,114.795 122.87,114.174 C122.87,114.174 119.607,111.026 119.607,111.026 C118.182,112.4 116.189,112.191 114.651,112.634 C113.007,111.756 111.331,111.989 108.703,111.902 C110.462,107.713 113.722,105.462 117.581,104.709 C121.077,104.027 124.026,100.478 126.721,97.9002 C128.046,98.5259 129.552,99.8101 129.95,100.823 Z " fill="rgb(89,149,75)"/>
<path d="M135.234,73.6215 C134.775,73.8946 133.451,73.6998 133.257,74.0484 C133.257,74.0484 131.764,79.4582 131.764,79.4582 C131.568,80.1709 131.168,80.1029 130.899,80.5312 C130.24,81.5784 129.141,81.1362 129.059,80.3648 C128.965,79.4836 131.572,78.944 125.777,72.4234 C123.857,71.8656 121.927,71.1868 121.961,69.0767 C126.669,69.6954 131.283,71.1941 135.234,73.6215 Z " fill="rgb(39,113,55)"/>
<path d="M113.232,71.3311 C111.775,72.7683 110.923,74.528 109.189,76.0488 C109.189,76.0488 103.235,81.2705 103.235,81.2705 C102.517,81.2458 102.057,80.8207 102.003,80.472 C101.938,80.0469 102.059,79.0839 101.96,78.7269 C108.808,77.2387 103.496,67.4581 113.774,69.3209 C113.209,69.9144 112.899,70.5012 113.232,71.3311 Z " fill="rgb(224,46,29)"/>
<path d="M133.089,114.668 C132.77,114.787 132.324,114.854 132.109,115.073 C132.109,115.073 127.945,107.901 127.945,107.901 C127.764,106.668 127.625,105.787 128.662,104.725 C130.481,104.77 132.215,104.54 133.077,106.353 C134.588,109.53 133.01,111.518 133.089,114.668 Z " fill="rgb(9,35,34)"/>
<path d="M117.581,104.709 C113.722,105.462 110.462,107.713 108.703,111.902 C111.331,111.989 113.007,111.756 114.651,112.634 C110.458,113.84 107.703,111.307 104.866,112.7 C105.805,110.632 107.389,108.945 109.126,107.147 C110.673,105.546 112.949,104.586 115.014,103.91 C116.364,103.468 117.871,102.835 119.223,103.422 C118.139,104.25 117.646,104.371 117.581,104.709 Z " fill="rgb(30,67,38)"/>
<path d="M61.0688,116.959 C60.6862,118.718 59.8596,120.268 59.951,121.954 C59.2676,122.147 58.8618,122.543 58.921,123.503 C58.989,124.606 59.1713,124.622 59.9089,125.136 C60.6938,125.683 61.4527,127.248 61.0213,128.024 C59.3795,128.081 56.9728,128.569 55.9353,126.949 C56.0253,126.32 56.7536,125.427 57.2983,124.962 C58.6848,122.288 57.907,118.978 57.9638,116.085 C59.3008,115.563 60.5491,116.231 61.0688,116.959 Z " fill="rgb(81,144,93)"/>
<path d="M135.13,107.006 C135.272,109.401 135.886,112.094 137.893,114.281 C139.948,113.122 140.925,111.741 142.245,110.521 C143.957,111.306 144.85,111.023 146.118,109.757 C144.831,111.293 143.502,113.636 142.711,116.168 C142.371,117.21 139.288,117.504 138.625,116.535 C137.773,115.291 137.182,114.151 135.544,113.969 C134.817,113.888 134.031,114.318 133.089,114.668 C133.01,111.518 134.588,109.53 133.077,106.353 C132.215,104.54 130.481,104.77 128.662,104.725 C129.413,103.958 128.706,101.241 129.95,100.823 C130.523,102.281 129.222,105.284 131.414,103.116 C133.102,104.002 133.878,105.728 135.13,107.006 Z " fill="rgb(42,121,66)"/>
<path d="M56.3184,72.8299 C56.0712,72.1596 55.9249,71.579 55.7393,70.6773 C57.9471,69.5808 60.0219,69.8721 62.5614,71.0594 C63.4986,68.8351 65.7376,70.2004 64.2185,71.9129 C62.5437,75.225 58.158,74.3846 56.3184,72.8299 Z " fill="rgb(200,81,79)"/>
<path d="M71.8456,98.0543 C72.3541,98.856 72.695,99.7208 72.0481,100.472 C71.0819,101.593 67.4673,101.596 64.0008,100.997 C63.8223,100.307 64.1725,98.8167 64.325,98.1252 C64.325,98.1252 71.8456,98.0543 71.8456,98.0543 Z " fill="rgb(58,139,65)"/>
<path d="M83.0595,123.077 C83.0595,123.077 87.0864,127.721 87.0864,127.721 C85.084,128.144 83.8234,128.088 82.2374,127.985 C82.2374,127.985 80.6694,122.184 80.6694,122.184 C81.5266,121.968 82.6847,122.645 83.0595,123.077 Z " fill="rgb(57,111,68)"/>
<path d="M92.1563,111.361 C89.7792,112.6 86.6264,111.854 84.0846,112.133 C84.1949,111.598 83.4779,110.736 82.8955,110.285 C86.66,109.462 89.3025,110.055 92.1563,111.361 Z " fill="rgb(50,101,58)"/>
<path d="M57.9638,116.085 C57.907,118.978 58.6848,122.288 57.2983,124.962 C57.2983,124.962 57.2247,113.333 57.2247,113.333 C57.244,112.439 58.6785,112.13 59.1606,111.89 C57.9219,113.351 57.9961,114.443 57.9638,116.085 Z " fill="rgb(70,103,79)"/>
<path d="M158.938,98.0362 C159.474,98.1221 160.122,97.8311 159.956,96.8784 C160.882,97.5311 162.259,97.5995 163.512,99.2808 C161.828,100.652 159.606,99.1519 158.938,98.0362 Z " fill="rgb(100,128,102)"/>
<path d="M70.9953,112.032 C70.6733,111.683 70.8039,110.767 70.4678,111.009 C69.9894,111.353 68.9061,110.877 69.0153,110.478 C68.7892,111.304 75.2274,107.997 74.9083,108.048 C74.0531,109.661 72.6272,111.037 70.9953,112.032 Z " fill="rgb(71,125,77)"/>
<path d="M109.126,107.147 C107.389,108.945 105.805,110.632 104.866,112.7 C104.866,112.7 101.522,120.074 101.522,120.074 C100.347,122.665 98.8691,124.667 101.384,127.886 C101.384,127.886 93.8271,127.776 93.8271,127.776 C98.2714,122.75 93.9216,116.968 98.5654,111.674 C96.486,110.528 95.1019,111.048 93.4537,110.774 C94.7072,109.302 97.0058,109.634 99.5059,111.149 C99.7563,111.982 99.0069,113.336 99.0974,115.398 C98.9989,115.612 98.2184,116.191 97.9845,116.538 C97.7377,116.904 97.9852,117.848 98.5057,118.017 C101.203,118.894 99.0225,109.269 103.534,105.65 C104.876,104.574 106.299,104.429 107.28,101.574 C108.282,103.117 107.474,103.775 107.374,104.673 C107.254,105.753 107.629,106.747 109.126,107.147 Z M97.434,127.126 C97.434,127.126 97.9723,126.491 97.9723,126.491 C98.0416,125.025 98.2985,123.436 97.596,121.967 C97.596,121.967 96.8684,122.507 96.8684,122.507 C97.0027,124.003 96.6883,125.643 97.434,127.126 Z " fill="rgb(52,122,71)"/>
<path d="M103.759,85.5305 C97.143,90.9305 81.0099,98.0641 71.8456,98.0543 C71.8456,98.0543 64.325,98.1252 64.325,98.1252 C64.6019,96.8701 65.0037,96.2243 64.1697,95.0816 C64.1697,95.0816 72.0552,95.4049 72.0552,95.4049 C83.8146,93.5476 94.7756,88.69 103.235,81.2705 C103.235,81.2705 109.189,76.0488 109.189,76.0488 C108.907,76.8202 109.011,77.7469 109.581,78.0669 C110.058,78.3344 111.247,78.2051 111.753,77.7042 C111.753,77.7042 114.929,74.7585 114.929,74.7585 C114.283,75.5827 114.04,77.14 113.054,77.9448 C113.054,77.9448 103.759,85.5305 103.759,85.5305 Z " fill="rgb(17,25,31)"/>
<path d="M79.0931,110.198 C79.1057,109.244 78.5052,108.798 77.8448,108.888 C77.8381,108.262 78.2147,108.083 78.5687,107.966 C79.188,107.762 79.8855,108.13 80.0065,108.492 C80.4078,109.691 79.5126,109.84 79.0931,110.198 Z " fill="rgb(73,128,77)"/>
<path d="M59.9089,125.136 C59.1713,124.622 58.989,124.606 58.921,123.503 C58.8618,122.543 59.2676,122.147 59.951,121.954 C59.951,121.954 59.9089,125.136 59.9089,125.136 Z " fill="rgb(62,106,72)"/>
<path d="M132.109,115.073 C129.499,117.722 126.624,121.986 123.164,123.602 C119.228,125.44 114.862,123.192 113.126,120.222 C115.361,118.753 118.155,117.723 120.697,117.223 C121.499,118.654 122.361,119.212 123.681,118.247 C124.22,117.852 125.42,117.127 124.64,116.039 C124.263,115.513 123.737,115.01 122.87,114.174 C123.357,114.795 123.628,115.143 124.631,114.784 C125.964,114.307 128.124,109.123 127.945,107.901 C127.945,107.901 132.109,115.073 132.109,115.073 Z M120.796,119.322 C118.7,117.764 117.907,119.565 118.317,119.964 C120.206,120.739 120.993,119.345 120.796,119.322 Z M121.147,122.16 C121.147,121.61 120.701,121.164 120.151,121.164 C119.601,121.164 119.155,121.61 119.155,122.16 C119.155,122.71 119.601,123.155 120.151,123.155 C120.701,123.155 121.147,122.71 121.147,122.16 Z " fill="rgb(43,119,66)"/>
<path d="M55.7393,70.6773 C55.9249,71.579 56.0712,72.1596 56.3184,72.8299 C53.9929,72.5425 51.9843,75.354 51.4045,77.0996 C49.4652,82.9385 52.3493,86.5508 57.5578,89.8146 C57.2403,89.9689 55.9965,90.0696 55.6584,89.7488 C55.3623,89.468 55.0145,89.2417 54.7242,87.6148 C54.0967,87.9783 53.8139,88.8677 53.7846,89.4654 C53.6858,91.48 57.192,90.4203 57.042,93.1286 C53.0131,91.2869 49.4385,87.7674 48.3248,82.592 C47.218,77.4487 51.5183,72.7737 55.7393,70.6773 Z " fill="rgb(142,53,57)"/>
<path d="M89.6622,79.9573 C88.6338,77.828 88.9682,73.0845 89.0561,70.2066 C89.0561,70.2066 83.0096,70.0922 83.0096,70.0922 C83.0096,70.0922 82.7982,86.6955 82.7982,86.6955 C82.7891,87.4096 81.4309,88.045 80.9706,87.9966 C80.9321,87.6643 81.0474,86.9947 81.9911,86.7874 C81.9911,86.7874 82.0069,69.0588 82.0069,69.0588 C82.0069,69.0588 89.9835,69.0458 89.9835,69.0458 C89.9835,69.0458 89.6622,79.9573 89.6622,79.9573 Z " fill="rgb(151,67,67)"/>
<path d="M122.968,57.9262 C120.479,62.9318 117.192,67.4259 113.232,71.3311 C112.899,70.5012 113.209,69.9144 113.774,69.3209 C103.496,67.4581 108.808,77.2387 101.96,78.7269 C99.3969,69.4047 103.921,65.2259 100.938,61.031 C101.318,60.9465 102.367,60.8503 102.98,61.1826 C103.259,65.0504 102.232,68.7055 103.627,72.6295 C109.62,67.8552 117.787,56.9225 117.69,56.454 C117.606,56.0463 116.986,55.615 116.703,55.5514 C118.59,55.4572 121.223,57.4732 122.968,57.9262 Z " fill="rgb(175,23,17)"/>
<path d="M142.245,110.521 C140.925,111.741 139.948,113.122 137.893,114.281 C135.886,112.094 135.272,109.401 135.13,107.006 C135.047,105.598 135.198,104.857 136.419,103.872 C137.228,103.219 138.306,103.22 140.533,103.866 C142.042,104.383 140.856,105.206 140.401,105.065 C138.79,104.564 138.541,106.065 138.417,107.219 C139.102,108.616 141.114,109.499 142.245,110.521 Z " fill="rgb(66,147,82)"/>
<path d="M129.837,89.5553 C128.887,92.116 128.696,95.9878 126.721,97.9002 C124.026,100.478 121.077,104.027 117.581,104.709 C117.646,104.371 118.139,104.25 119.223,103.422 C117.871,102.835 116.364,103.468 115.014,103.91 C115.217,102.474 114.412,101.826 112.989,101.123 C108.042,98.6782 106.313,93.5026 104.9,88.9105 C107.158,89.0553 107.902,90.6344 109.443,93.271 C109.776,90.2776 112.017,90.2457 113.818,89.0105 C119.18,85.3337 120.667,89.0984 126.982,89.8987 C129.072,89.1879 129.049,85.1674 129.34,83.0184 C130.345,84.716 130.472,87.8466 129.837,89.5553 Z M121.078,93.7533 C121.452,95.0482 121.267,95.7643 121.575,96.0904 C121.925,96.4611 123.162,96.3848 123.491,96.0802 C123.821,95.7756 124.542,94.972 124.248,93.6356 C123.827,91.7264 120.551,90.7132 118.334,90.513 C116.871,90.3808 114.972,92.0061 112.967,92.9175 C111.5,93.5846 112.167,94.9199 112.977,95.5123 C113.525,95.9132 114.054,97.8508 115.443,96.2273 C115.857,95.0654 116.249,93.3462 117.652,93.0841 C118.729,92.8831 120.795,92.7746 121.078,93.7533 Z " fill="rgb(38,118,50)"/>
<path d="M97.434,127.126 C96.6883,125.643 97.0027,124.003 96.8684,122.507 C96.8684,122.507 97.596,121.967 97.596,121.967 C98.2985,123.436 98.0416,125.025 97.9723,126.491 C97.9723,126.491 97.434,127.126 97.434,127.126 Z " fill="rgb(86,155,108)"/>
<path d="M121.147,122.16 C121.147,122.71 120.701,123.155 120.151,123.155 C119.601,123.155 119.155,122.71 119.155,122.16 C119.155,121.61 119.601,121.164 120.151,121.164 C120.701,121.164 121.147,121.61 121.147,122.16 Z " fill="rgb(92,141,102)"/>
<path d="M120.796,119.322 C120.993,119.345 120.206,120.739 118.317,119.964 C117.907,119.565 118.7,117.764 120.796,119.322 Z " fill="rgb(92,141,102)"/>
<path d="M121.078,93.7533 C120.795,92.7746 118.729,92.8831 117.652,93.0841 C116.249,93.3462 115.857,95.0654 115.443,96.2273 C114.054,97.8508 113.525,95.9132 112.977,95.5123 C112.167,94.9199 111.5,93.5846 112.967,92.9175 C114.972,92.0061 116.871,90.3808 118.334,90.513 C120.551,90.7132 123.827,91.7264 124.248,93.6356 C124.542,94.972 123.821,95.7756 123.491,96.0802 C123.162,96.3848 121.925,96.4611 121.575,96.0904 C121.267,95.7643 121.452,95.0482 121.078,93.7533 Z " fill="rgb(71,140,70)"/>
</svg>